<?xml version="1.0" encoding="UTF-8" standalone="no"?><!DOCTYPE svg PUBLIC "-//W3C//DTD SVG 1.1//EN" "http://www.w3.org/Graphics/SVG/1.1/DTD/svg11.dtd"><svg width="100%" height="100%" viewBox="0 0 24189 24189" version="1.1" xmlns="http://www.w3.org/2000/svg" xmlns:xlink="http://www.w3.org/1999/xlink" xml:space="preserve" xmlns:serif="http://www.serif.com/" style="fill-rule:evenodd;clip-rule:evenodd;stroke-linejoin:round;stroke-miterlimit:2;"><g><path d="M6075.233,15121.892l0,1417.301c0,391.115 -317.536,708.65 -708.65,708.65l-1417.301,0c-391.115,0 -708.65,-317.536 -708.65,-708.65l0,-1417.301c0,-391.115 317.536,-708.65 708.65,-708.65l1417.301,0c391.115,0 708.65,317.536 708.65,708.65Z" style="fill:#d03022;"/><path d="M19733.311,9244.792l-949.768,8658.294c-49.923,455.109 -460.121,785.746 -915.447,737.889l-8662.532,-910.469c-455.326,-47.857 -784.462,-456.201 -734.539,-911.31l949.768,-8658.294c49.923,-455.109 460.121,-785.746 915.447,-737.889l8662.532,910.469c455.326,47.857 784.462,456.201 734.539,911.31Z" style="fill:#009dd4;"/><path d="M17930.146,7370.563l-871.147,8666.557c-45.79,455.543 -452.633,786.533 -907.959,738.676l-8662.532,-910.469c-455.326,-47.857 -787.817,-456.553 -742.026,-912.097l871.147,-8666.557c45.79,-455.543 452.633,-786.533 907.959,-738.676l8662.532,910.469c455.326,47.857 787.817,456.553 742.026,912.097Z" style="fill:#fece00;"/><path d="M18807.766,8292.038l-930.33,8660.404c-48.901,455.22 -458.356,786.777 -913.788,739.942l-8664.554,-891.021c-455.432,-46.834 -785.484,-454.439 -736.583,-909.658l930.33,-8660.404c48.901,-455.22 458.356,-786.777 913.788,-739.942l8664.554,891.021c455.432,46.834 785.484,454.439 736.583,909.658Z" style="fill:#d03022;"/><g transform="matrix(11874.226183,0,0,11874.226183,15953.496174,15036.496738)"></g><text x="10313.239px" y="15036.497px" style="font-family:'Tilt-Neon-Regular', 'Tilt Neon';font-size:11874.226px;fill:#fff0e0;">c</text></g></svg>