<?xml version="1.0" encoding="UTF-8" standalone="no"?><!DOCTYPE svg PUBLIC "-//W3C//DTD SVG 1.1//EN" "http://www.w3.org/Graphics/SVG/1.1/DTD/svg11.dtd"><svg width="100%" height="100%" viewBox="0 0 24189 24189" version="1.1" xmlns="http://www.w3.org/2000/svg" xmlns:xlink="http://www.w3.org/1999/xlink" xml:space="preserve" xmlns:serif="http://www.serif.com/" style="fill-rule:evenodd;clip-rule:evenodd;stroke-linejoin:round;stroke-miterlimit:2;"><g id="v02"><path d="M5395.067,8163.558l548.741,2800.68c28.844,147.213 -67.196,290.455 -214.335,319.676l-2831.706,562.362c-147.138,29.221 -290.013,-66.574 -318.857,-213.787l-548.741,-2800.68c-28.844,-147.213 67.196,-290.455 214.335,-319.676l2831.706,-562.362c147.138,-29.221 290.013,66.574 318.857,213.787Z" style="fill:#d03022;"/><path d="M9859.385,8470.7l0,2854.648c0,150.05 -121.821,271.871 -271.871,271.871l-2885.995,0c-150.05,0 -271.871,-121.821 -271.871,-271.871l0,-2854.648c0,-150.05 121.821,-271.871 271.871,-271.871l2885.995,0c150.05,0 271.871,121.821 271.871,271.871Z" style="fill:#ed6e40;"/><path d="M13940.011,8630.944l-253.765,2843.193c-13.339,149.448 -145.487,259.805 -294.919,246.286l-2874.473,-260.045c-149.431,-13.519 -259.921,-145.827 -246.583,-295.274l253.765,-2843.193c13.339,-149.448 145.487,-259.805 294.919,-246.286l2874.473,260.045c149.431,13.519 259.921,145.827 246.583,295.274Z" style="fill:#fece00;"/><path d="M17648.326,8356.956l251.553,2843.392c13.222,149.458 -97.371,281.679 -246.813,295.08l-2874.673,257.778c-149.442,13.401 -281.505,-97.061 -294.728,-246.519l-251.553,-2843.392c-13.222,-149.458 97.371,-281.679 246.813,-295.08l2874.673,-257.778c149.442,-13.401 281.505,97.061 294.728,246.519Z" style="fill:#11c4a1;"/><path d="M21671.11,8284.176l321.444,2836.245c16.896,149.082 -90.401,284.02 -239.458,301.143l-2867.484,329.402c-149.056,17.123 -283.789,-90.012 -300.685,-239.094l-321.444,-2836.245c-16.896,-149.082 90.401,-284.02 239.458,-301.143l2867.484,-329.402c149.056,-17.123 283.789,90.012 300.685,239.094Z" style="fill:#60bfe2;"/><path d="M13506.454,12202.49l559.645,2798.492c29.417,147.098 -66.062,290.718 -213.082,320.518l-2829.504,573.539c-147.02,29.801 -290.265,-65.43 -319.681,-212.528l-559.645,-2798.492c-29.417,-147.098 66.062,-290.718 213.082,-320.518l2829.504,-573.539c147.02,-29.801 290.265,65.43 319.681,212.528Z" style="fill:#009dd4;"/><path d="M17601.396,12289.669l392.978,2827.098c20.656,148.602 -83.188,286.241 -231.751,307.173l-2858.284,402.714c-148.563,20.932 -285.947,-82.72 -306.604,-231.322l-392.978,-2827.098c-20.656,-148.602 83.188,-286.241 231.751,-307.173l2858.284,-402.714c148.563,-20.932 285.947,82.72 306.604,231.322Z" style="fill:#907fe4;"/><path d="M22041.726,12863.428l-397.201,2826.5c-20.878,148.57 -158.417,252.014 -306.947,230.858l-2857.682,-407.042c-148.531,-21.156 -252.168,-158.953 -231.29,-307.523l397.201,-2826.5c20.878,-148.57 158.417,-252.014 306.947,-230.858l2857.682,407.042c148.531,21.156 252.168,158.953 231.29,307.523Z" style="fill:#f4729b;"/><path d="M2236.428,11343.946l-69.471,695.153c-12.781,127.888 -126.985,221.33 -254.872,208.536l-705.832,-70.615c-127.887,-12.794 -221.339,-127.011 -208.558,-254.899l69.471,-695.153c12.781,-127.888 126.985,-221.33 254.872,-208.536l705.832,70.615c127.887,12.794 221.339,127.011 208.558,254.899Z" style="fill:#d03022;"/><path d="M23261.14,15011.451l5.957,699.671c1.096,128.72 -102.518,234.103 -231.238,235.185l-710.429,5.975c-128.72,1.083 -234.114,-102.542 -235.21,-231.262l-5.957,-699.671c-1.096,-128.72 102.518,-234.103 231.238,-235.185l710.429,-5.975c128.72,-1.083 234.114,102.542 235.21,231.262Z" style="fill:#f4729b;"/><path d="M768.586,11925.115l0,350.929c0,64.561 -52.415,116.976 -116.976,116.976l-356.482,0c-64.561,0 -116.976,-52.415 -116.976,-116.976l0,-350.929c0,-64.561 52.415,-116.976 116.976,-116.976l356.482,0c64.561,0 116.976,52.415 116.976,116.976Z" style="fill:#d03022;"/><path d="M24010.826,15774.087l0,355.847c0,63.204 -51.314,114.518 -114.518,114.518l-343.553,0c-63.204,0 -114.518,-51.314 -114.518,-114.518l0,-355.847c0,-63.204 51.314,-114.518 114.518,-114.518l343.553,0c63.204,0 114.518,51.314 114.518,114.518Z" style="fill:#f4729b;"/><g transform="matrix(0.993271,0,0,1,-39.702424,0)"><g transform="matrix(3943.083737,0,0,3943.083737,4973.259516,10875.847918)"></g><text x="3100.295px" y="10875.848px" style="font-family:'Tilt-Neon-Regular', 'Tilt Neon';font-size:3943.084px;fill:#fff0e0;">c</text></g><g transform="matrix(0.993271,0,0,1,-12.957569,-0)"><g transform="matrix(3943.083737,0,0,3943.083737,9350.312723,10890.173266)"></g><text x="7075.153px" y="10890.173px" style="font-family:'Tilt-Neon-Regular', 'Tilt Neon';font-size:3943.084px;fill:#fff0e0;">o</text></g><g transform="matrix(0.993271,0,0,1,13.869147,0)"><g transform="matrix(3943.083737,0,0,3943.083737,13254.532734,10566.405501)"></g><text x="11062.178px" y="10566.406px" style="font-family:'Tilt-Neon-Regular', 'Tilt Neon';font-size:3943.084px;fill:#fff0e0;">g</text></g><g transform="matrix(0.993271,0,0,1,40.342147,-0)"><g transform="matrix(3943.083737,0,0,3943.083737,17236.304757,10913.649525)"></g><text x="14996.633px" y="10913.65px" style="font-family:'Tilt-Neon-Regular', 'Tilt Neon';font-size:3943.084px;fill:#fff0e0;">n</text></g><g transform="matrix(0.993271,0,0,1,72.46212,-0)"><g transform="matrix(3661.434899,0,0,3661.434899,20616.140962,11216.140378)"></g><text x="19770.35px" y="11216.14px" style="font-family:'Tilt-Neon-Regular', 'Tilt Neon';font-size:3661.435px;fill:#fff0e0;">i</text></g><g transform="matrix(0.993271,0,0,1,14.580666,0)"><g transform="matrix(3943.083737,0,0,3943.083737,13131.580799,15302.864835)"></g><text x="11167.925px" y="15302.865px" style="font-family:'Tilt-Neon-Regular', 'Tilt Neon';font-size:3943.084px;fill:#fff0e0;">L</text></g><g transform="matrix(0.993271,0,0,1,40.592496,-0)"><g transform="matrix(3943.083737,0,0,3943.083737,17336.601347,14900.670293)"></g><text x="15033.84px" y="14900.67px" style="font-family:'Tilt-Neon-Regular', 'Tilt Neon';font-size:3943.084px;fill:#fff0e0;">a</text></g><g transform="matrix(0.993271,0,0,1,67.327691,-0)"><g transform="matrix(3943.083737,0,0,3943.083737,21310.024225,15448.13801)"></g><text x="19007.263px" y="15448.138px" style="font-family:'Tilt-Neon-Regular', 'Tilt Neon';font-size:3943.084px;fill:#fff0e0;">b</text></g></g></svg>